<svg xmlns="http://www.w3.org/2000/svg" width="433.175" height="171.055" viewBox="0 0 433.175 171.055"><g transform="translate(0 0.005)"><path d="M405.77,77a41.38,41.38,0,0,1,.64,26.09c-2.18,7.32-5.3,14.17-10.85,19.7a33.8,33.8,0,0,1-8.83,6.32c-2.22,1.12-3.67.63-4.6-1.77-4.91-12.53-3.81-24.74,2.33-36.47a41.18,41.18,0,0,1,15.38-16.76c3.58-2.13,3.87-2.06,5.48,1.8Z" fill="#3f2875"/><path d="M432.29,100.41a41.41,41.41,0,0,1-15.53,21c-6.22,4.44-12.89,7.93-20.66,8.88a33.77,33.77,0,0,1-10.85-.43c-2.44-.48-3.28-1.76-2.55-4.23,3.83-12.9,12.2-21.86,24.25-27.34a41.15,41.15,0,0,1,22.43-3.78c4.14.52,4.32.75,3.22,4.78C432.5,99.65,432.39,100,432.29,100.41Z" fill="#ffb0cf"/><path d="M350.65,117.53q-.87-6.78-1.45-13.27-1.72-17.6-1.73-30.14,0-2.45.15-7.5c.09-1.63.14-3.22.14-4.76Q348,45.57,346,35.91q-2.88-14.56-11.39-23.36Q322.39,0,299.45,0a68.4,68.4,0,0,0-29.56,6.34,62.81,62.81,0,0,0-9.08,5.2A27.55,27.55,0,0,0,257.63,14a19.32,19.32,0,0,0-2.16,1.87,1.66,1.66,0,0,0,0,2.74l15.29,14a1.59,1.59,0,0,0,2.45,0,32.887,32.887,0,0,1,3.32-2.31A36.88,36.88,0,0,1,282,27.54a44.75,44.75,0,0,1,17.44-3.31q12.69,0,17.74,5.33,4.9,5.06,5.91,17.88Q278,44.56,259.36,61.14,247.11,72,247.11,89q0,19,11.68,29.85t32.45,10.67q20.17,0,34.89-12.25.57,5.48,1.3,10.81a1.72,1.72,0,0,0,1.87,1.59h20.77c1.44,0,2.06-.72,1.87-2.16Q351.22,122.57,350.65,117.53ZM320.31,72.68l-.12.66-.36,1.78c-3.8,15.67-14.27,25.82-31.66,30.17a36.58,36.58,0,0,1-15,.47l-.25-.05c-2.36-.47-2.48-.63-2.12-2.68,1.65-9.16,6-17,14.08-22.75,9.66-6.88,20.94-10.1,33.74-9.37C320.3,71,320.53,71.27,320.31,72.68Z" fill="#fff"/><path d="M107,19.18Q88.84.3,63,.14,36.62,0,18.31,18.75T0,64.89Q0,91.71,19,110.6t45.72,19a63.74,63.74,0,0,0,31.58-8.22A63.33,63.33,0,0,0,120,98.92a1.62,1.62,0,0,0-.72-2.59L101.52,85.94a1.77,1.77,0,0,0-2.6.73,39.58,39.58,0,0,1-14.71,13.7A40.592,40.592,0,0,1,28.26,82.2L123.44,74a1.69,1.69,0,0,0,1.73-1.88V63.88Q125.17,37.93,107,19.18ZM93.22,39.78l-.88,1A48.5,48.5,0,0,1,65.83,55.46c-8.66,1.69-17.34,2.17-25.9-.55a38.28,38.28,0,0,1-11.1-5.65c-2.3-1.67-2.56-3.42-.58-5.66C38.59,31.86,51.72,26.44,67,26.45a47.215,47.215,0,0,1,25.24,6.76C96.27,35.74,96.35,36.07,93.22,39.78Z" fill="#fff"/><path d="M248.62,2.88a2.26,2.26,0,0,0-1.75-.69H222.15a1.88,1.88,0,0,0-1.92,1.11L185.79,83.8,154.51,10.36h0c-3.3-7.73-10.11-8.17-10.11-8.17H124.7a1.8,1.8,0,0,0-1.59.69,1.63,1.63,0,0,0-.32,1.66l49.16,115c1.9,3.43,5.6,7.94,12,7.94h10.92A2,2,0,0,0,197,126.2L248.78,4.54a1.38,1.38,0,0,0-.16-1.66Z" fill="#fff"/><path d="M17.22,147.11c6.39,0,11.08,4.64,11.08,11.93s-4.73,12-11.08,12c-4.64,0-7.84-2.42-9.25-5.45v5.11H5V139.19H8v13.42a9.88,9.88,0,0,1,9.22-5.5Zm-.6,2.6c-4.73,0-8.65,3.58-8.65,9.37s3.92,9.37,8.65,9.37c4.9,0,8.65-3.53,8.65-9.41s-3.75-9.33-8.65-9.33Z" fill="#fff"/><path d="M46,171.05c-6.6,0-11.42-4.6-11.42-12s4.73-12,11.42-12a10.6,10.6,0,0,1,11,10.84,21.632,21.632,0,0,1-.08,2.34H37.58c.26,5.46,4.05,8.31,8.39,8.31,4,0,6.65-2.09,7.5-5.2h3.15C55.56,167.73,51.81,171.05,46,171.05ZM37.58,157.8H53.94c.13-5.41-3.79-8.13-8.1-8.13S37.92,152.39,37.58,157.8Z" fill="#fff"/><path d="M82,157.42c0-5.15-2.81-7.8-7.07-7.8s-7.37,2.73-7.37,8.4v12.69h-3V147.45h3v4C69,148.52,72,147,75.45,147c5.28,0,9.46,3.23,9.46,10.05v13.63H82Z" fill="#fff"/><path d="M103.69,171.05c-6.6,0-11.41-4.6-11.41-12s4.73-12,11.41-12a10.544,10.544,0,0,1,11,10.78,19.238,19.238,0,0,1-.09,2.34H95.3c.26,5.46,4,8.31,8.39,8.31,4,0,6.65-2.09,7.5-5.2h3.15C113.28,167.73,109.53,171.05,103.69,171.05ZM95.3,157.8h16.36c.13-5.41-3.79-8.13-8.09-8.13S95.64,152.39,95.3,157.8Z" fill="#fff"/><path d="M123,150h-3.24v-2.52H123v-1.62c0-5,2.35-7.37,8.23-7.37V141c-4,0-5.25,1.45-5.25,4.81v1.62h5.42V150H126v20.74h-3Z" fill="#fff"/><path d="M143.65,137.91v2.68l-8.73,5.07v-2.3Zm-5.41,9.54h3v23.26h-3Z" fill="#fff"/><path d="M160.05,147.11c5.84,0,9.63,3.11,10.69,7.93h-3.19c-.77-3.33-3.58-5.37-7.5-5.37-4.56,0-8.26,3.11-8.26,9.41s3.7,9.46,8.26,9.46c3.92,0,6.69-2,7.5-5.41h3.19c-1.06,4.64-4.85,7.92-10.69,7.92-6.56,0-11.29-4.6-11.29-12S153.49,147.11,160.05,147.11Z" fill="#fff"/><path d="M177.69,140.85a2.17,2.17,0,1,1,2.17,2.17A2.17,2.17,0,0,1,177.69,140.85Zm.68,6.6h3v23.26h-3Z" fill="#fff"/><path d="M200.43,171.05c-6.56,0-11.54-4.6-11.54-12s5.11-12,11.63-12,11.63,4.56,11.63,12S207,171.05,200.43,171.05Zm0-2.6c4.39,0,8.65-3,8.65-9.37s-4.17-9.37-8.6-9.37-8.57,3-8.57,9.37S196,168.45,200.43,168.45Z" fill="#fff"/><path d="M227.74,171.05c-5.28,0-9-2.64-9.37-6.9h3.07c.25,2.56,2.47,4.39,6.26,4.39,3.32,0,5.2-1.79,5.2-4,0-5.76-14-2.39-14-11.12,0-3.45,3.28-6.31,8.18-6.31s8.27,2.64,8.52,7.12h-3c-.17-2.6-2.09-4.56-5.62-4.56-3.11,0-5.07,1.66-5.07,3.7,0,6.31,13.76,2.94,13.89,11.17C235.84,168.28,232.55,171.05,227.74,171.05Z" fill="#fff"/></g></svg>