<svg xmlns="http://www.w3.org/2000/svg" xmlns:xlink="http://www.w3.org/1999/xlink" width="73.082" height="23.593" viewBox="0 0 73.082 23.593"><defs><linearGradient id="a" y1="0.501" x2="1" y2="0.501" gradientUnits="objectBoundingBox"><stop offset="0" stop-color="#fff"/><stop offset="1" stop-color="#9d9d9c"/></linearGradient><linearGradient id="b" x1="0" y1="0.499" x2="1" y2="0.499" xlink:href="#a"/><linearGradient id="c" x1="0" y1="0.497" x2="1.001" y2="0.497" xlink:href="#a"/><linearGradient id="d" x1="-0.004" y1="0.5" x2="0.996" y2="0.5" xlink:href="#a"/></defs><path d="M238.291,888.343c-.547-2.583-1.08-5.167-1.627-7.75l-.451-2.16-.451-2.16-.451-2.16c-.109-.492-.205-.984-.314-1.49s-.273-1.367-.424-2.064l-.984-4.756c0-.109,0-.15-.178-.15h-4.839a2.9,2.9,0,0,0-.6,0,2.637,2.637,0,0,0-1.585.957,4.236,4.236,0,0,0-.519.943q-4.333,10.374-8.666,20.734c-.068.164-.068.164.109.164h5.85a.2.2,0,0,0,.232-.164c.369-1.039.752-2.078,1.121-3.13a.177.177,0,0,1,.178-.123h7.285c.1,0,.137,0,.15.137l.656,3.144c0,.109,0,.137.178.137h5.167C238.319,888.507,238.319,888.507,238.291,888.343Zm-7.271-7.927h-4.606c-.15,0-.15,0-.1-.137l2.091-5.8.642-1.791c.1-.26.191-.533.3-.793h0a3.518,3.518,0,0,0,.109.519c.191.888.369,1.777.56,2.665l.533,2.6c.178.875.369,1.75.547,2.624.055.1.014.109-.082.109Z" transform="translate(-165.222 -865.339)" fill="url(#a)"/><path d="M206.742,865.651H200.81a.2.2,0,0,0-.232.164l-6,15.185a.328.328,0,0,1-.082.15V881c-.26-1.367-.519-2.734-.765-4.1q-.82-4.333-1.626-8.652a3.444,3.444,0,0,0-.506-1.367,2.734,2.734,0,0,0-2.337-1.23h-9.882a.109.109,0,0,0-.137.1,2.169,2.169,0,0,1-.082.41c0,.109,0,.151.123.178a31.777,31.777,0,0,1,4.346,1.367,9.763,9.763,0,0,1,1.695.834,2.064,2.064,0,0,1,.752.889,7.138,7.138,0,0,1,.246.765q2.351,9.1,4.7,18.192c0,.178,0,.178.232.178h5.877a.232.232,0,0,0,.26-.178L203.38,874.1l3.444-8.2C206.906,865.651,206.906,865.651,206.742,865.651Z" transform="translate(-179.16 -865.336)" fill="url(#b)"/><path d="M221.807,880.209a4.974,4.974,0,0,0-.437-1.367,5.824,5.824,0,0,0-.957-1.367,5.293,5.293,0,0,0-.56-.547,7.617,7.617,0,0,0-.752-.6,19.316,19.316,0,0,0-2.283-1.367c-.574-.3-1.148-.588-1.695-.929a3.966,3.966,0,0,1-1.2-.97,1.368,1.368,0,0,1-.328-.711,1.531,1.531,0,0,1,.478-1.23,2.188,2.188,0,0,1,.847-.56,5.464,5.464,0,0,1,1.845-.356,11.08,11.08,0,0,1,3.007.314,12.115,12.115,0,0,1,2.05.711c.1,0,.123,0,.137-.082a3.08,3.08,0,0,1,.082-.342l.9-4.237c0-.1,0-.15-.1-.178l-.834-.273a15.039,15.039,0,0,0-3.882-.683,14.592,14.592,0,0,0-2.447.1,11.416,11.416,0,0,0-1.367.219,10.786,10.786,0,0,0-3.5,1.367A7.2,7.2,0,0,0,208,870.354a6.288,6.288,0,0,0-.465,3.5,5.25,5.25,0,0,0,1.5,2.857,10.47,10.47,0,0,0,2.542,1.9c.683.383,1.367.7,2.078,1.08a6.2,6.2,0,0,1,1.517,1.066,1.7,1.7,0,0,1,.437,1.75,1.928,1.928,0,0,1-.984,1.135,4.3,4.3,0,0,1-1.954.56,11.579,11.579,0,0,1-3.813-.328,14.257,14.257,0,0,1-2.624-1.011c-.15,0-.15,0-.178.082-.219,1.066-.451,2.119-.683,3.171l-.328,1.558c0,.082,0,.137.1.178s.342.137.519.205a19.137,19.137,0,0,0,5.823.957,16.711,16.711,0,0,0,3.608-.369,10.275,10.275,0,0,0,3.554-1.517,11.089,11.089,0,0,0,1.175-.943,5.615,5.615,0,0,0,.656-.752,6.467,6.467,0,0,0,1.162-2.31A6.833,6.833,0,0,0,221.807,880.209Z" transform="translate(-169.663 -865.419)" fill="url(#c)"/><path d="M208.345,865.66h-5.563c-.178,0-.178,0-.205.164l-1.367,6.492-.779,3.663c-.082.355-.15.711-.232,1.066l-2.419,11.3c0,.137,0,.15.123.15h5.645c.109,0,.15,0,.164-.137.109-.478.219-.97.314-1.449s.137-.615.191-.916h0l.082-.369,1.968-9.226c.752-3.54,1.517-7.066,2.269-10.593C208.509,865.66,208.509,865.66,208.345,865.66Z" transform="translate(-172.33 -865.331)" fill="url(#d)"/></svg>